<svg width="17" height="17" viewBox="0 0 17 17" fill="none" xmlns="http://www.w3.org/2000/svg">
<g clip-path="url(#clip0_28_10)">
<path d="M7.07318 0.275215C7.1419 0.349545 7.21595 0.420123 7.27866 0.499386C8.38706 1.90223 9.49522 3.30547 10.5993 4.71214C10.6867 4.82348 10.7802 4.87854 10.9203 4.89853C12.7013 5.15284 14.482 5.41222 16.262 5.67279C16.664 5.73163 16.898 6.05519 16.7581 6.39237C16.7023 6.52717 16.5741 6.65163 16.4486 6.73507C14.9758 7.71356 13.4974 8.68356 12.0203 9.65588C10.16 10.8806 8.29993 12.1059 6.43925 13.3303C6.14103 13.5268 5.82014 13.5079 5.65456 13.2511C5.57262 13.124 5.53267 12.9424 5.54091 12.7886C5.63579 11.0172 5.74389 9.24661 5.84832 7.47601C5.97791 5.26418 6.10811 3.05218 6.23668 0.840287C6.24759 0.648109 6.27818 0.468347 6.43963 0.337362C6.61804 0.192533 6.86229 0.170782 7.07318 0.275215Z" fill="#1A9417"/>
</g>
<defs>
<clipPath id="clip0_28_10">
<rect width="12" height="12" fill="white" transform="translate(6.5965) rotate(30)"/>
</clipPath>
</defs>
</svg>
