<svg width="17" height="17" viewBox="0 0 17 17" fill="none" xmlns="http://www.w3.org/2000/svg">
<g clip-path="url(#clip0_28_2)">
<path d="M10.5121 16.1171C10.4434 16.0428 10.3693 15.9722 10.3066 15.8929C9.19824 14.4901 8.09007 13.0868 6.98599 11.6802C6.89862 11.5688 6.80508 11.5138 6.66497 11.4938C4.88399 11.2395 3.1033 10.9801 1.3233 10.7195C0.921268 10.6607 0.687338 10.3371 0.827242 9.99994C0.882955 9.86513 1.01116 9.74068 1.13674 9.65724C2.60949 8.67874 4.08788 7.70874 5.56497 6.73642C7.42525 5.51173 9.28537 4.28642 11.146 3.06196C11.4443 2.86555 11.7652 2.88436 11.9307 3.14115C12.0127 3.26828 12.0526 3.44991 12.0444 3.60372C11.9495 5.37511 11.8414 7.14569 11.737 8.91629C11.6074 11.1281 11.4772 13.3401 11.3486 15.552C11.3377 15.7442 11.3071 15.924 11.1457 16.0549C10.9673 16.1998 10.723 16.2215 10.5121 16.1171Z" fill="#CC1E1E"/>
</g>
<defs>
<clipPath id="clip0_28_2">
<rect width="12" height="12" fill="white" transform="translate(10.9888 16.3923) rotate(-150)"/>
</clipPath>
</defs>
</svg>
