<svg width="20" height="20" viewBox="0 0 20 20" fill="none" xmlns="http://www.w3.org/2000/svg">
<g clip-path="url(#clip0_46_17)">
<path d="M17.8572 0.714294H2.14287C1.35389 0.714294 0.714294 1.35389 0.714294 2.14287V15.7143C0.714294 16.5033 1.35389 17.1429 2.14287 17.1429H17.8572C18.6461 17.1429 19.2857 16.5033 19.2857 15.7143V2.14287C19.2857 1.35389 18.6461 0.714294 17.8572 0.714294Z" stroke="#A4B0C3" stroke-linecap="round" stroke-linejoin="round"/>
<path d="M12.1429 11.4286C13.5236 11.4286 14.6429 10.3093 14.6429 8.92859C14.6429 7.54788 13.5236 6.42859 12.1429 6.42859C10.7622 6.42859 9.64288 7.54788 9.64288 8.92859C9.64288 10.3093 10.7622 11.4286 12.1429 11.4286Z" stroke="#A4B0C3" stroke-linecap="round" stroke-linejoin="round"/>
<path d="M12.1429 4.64285V6.42857M12.1429 11.4286V13.2143M16.4286 8.92857H14.6429M9.64289 8.92857H7.85718M15.1715 5.9L13.9143 7.15714M10.3715 10.7L9.11432 11.9571M15.1715 11.9571L13.9143 10.7M10.3715 7.15714L9.11432 5.9M4.28575 6.42857V11.4286M2.85718 17.1429V19.2857M16.4286 17.1429V19.2857" stroke="#A4B0C3" stroke-linecap="round" stroke-linejoin="round"/>
</g>
<defs>
<clipPath id="clip0_46_17">
<rect width="20" height="20" fill="white"/>
</clipPath>
</defs>
</svg>
