<svg width="133" height="30" viewBox="0 0 133 30" fill="none" xmlns="http://www.w3.org/2000/svg">
<path d="M46.4487 11.7681C46.165 11.414 45.8105 11.122 45.385 10.8918C44.9772 10.644 44.4719 10.5201 43.8691 10.5201C43.3018 10.5201 42.8054 10.644 42.3799 10.8918C41.9721 11.122 41.7682 11.4671 41.7682 11.9274C41.7682 12.2991 41.8835 12.6001 42.1139 12.8302C42.3621 13.0603 42.6458 13.2462 42.9649 13.3878C43.3018 13.5294 43.6564 13.6357 44.0287 13.7065C44.401 13.7773 44.7201 13.8392 44.9861 13.8923C45.5002 14.0163 45.9789 14.1667 46.4221 14.3437C46.8831 14.5208 47.2731 14.7509 47.5922 15.0341C47.9291 15.3174 48.1862 15.6626 48.3635 16.0697C48.5585 16.4769 48.656 16.9725 48.656 17.5567C48.656 18.2648 48.5053 18.8755 48.2039 19.3889C47.9025 19.8845 47.5125 20.2917 47.0338 20.6103C46.5551 20.9289 46.0055 21.1591 45.385 21.3007C44.7822 21.4423 44.1705 21.5131 43.55 21.5131C42.504 21.5131 41.5821 21.3538 40.7843 21.0352C40.0042 20.7165 39.3039 20.1324 38.6833 19.2826L40.4917 17.7957C40.8818 18.1851 41.3161 18.5303 41.7948 18.8312C42.2735 19.1322 42.8586 19.2826 43.55 19.2826C43.8514 19.2826 44.1528 19.2561 44.4542 19.203C44.7733 19.1322 45.0481 19.0348 45.2786 18.9109C45.5268 18.7693 45.7218 18.6011 45.8637 18.4064C46.0232 18.194 46.103 17.955 46.103 17.6895C46.103 17.3354 45.9878 17.0433 45.7573 16.8132C45.5445 16.5831 45.2786 16.406 44.9595 16.2821C44.6581 16.1405 44.3301 16.0343 43.9755 15.9635C43.6386 15.875 43.3373 15.8042 43.0713 15.7511C42.5572 15.6271 42.0696 15.4855 41.6087 15.3262C41.1477 15.1669 40.7399 14.9545 40.3853 14.6889C40.0308 14.4234 39.7471 14.0871 39.5343 13.6799C39.3216 13.2728 39.2152 12.7682 39.2152 12.1664C39.2152 11.5114 39.3482 10.9449 39.6141 10.467C39.8978 9.97131 40.2612 9.56416 40.7045 9.24552C41.1654 8.92688 41.6796 8.6879 42.2469 8.52858C42.832 8.36926 43.417 8.2896 44.0021 8.2896C44.8531 8.2896 45.6686 8.44892 46.4487 8.76756C47.2288 9.0862 47.8493 9.61727 48.3103 10.3608L46.4487 11.7681ZM51.6168 10.1483C52.2905 9.52875 53.0705 9.0685 53.957 8.76756C54.8435 8.44892 55.7299 8.2896 56.6164 8.2896C57.5383 8.2896 58.3272 8.40467 58.9832 8.6348C59.6569 8.86492 60.2065 9.17471 60.632 9.56416C61.0575 9.95361 61.3678 10.405 61.5628 10.9184C61.7756 11.414 61.8819 11.9362 61.8819 12.485V18.9109C61.8819 19.3535 61.8908 19.7606 61.9085 20.1324C61.9263 20.5041 61.9528 20.8581 61.9883 21.1945H59.8608C59.8076 20.5572 59.781 19.9199 59.781 19.2826H59.7278C59.196 20.0969 58.5666 20.6723 57.8397 21.0086C57.1128 21.3449 56.2707 21.5131 55.3133 21.5131C54.7282 21.5131 54.1698 21.4335 53.6379 21.2741C53.106 21.1148 52.6362 20.8758 52.2284 20.5572C51.8384 20.2386 51.5282 19.8491 51.2977 19.3889C51.0672 18.9109 50.952 18.3621 50.952 17.7426C50.952 16.9283 51.1293 16.2467 51.4839 15.698C51.8562 15.1492 52.3525 14.7066 52.973 14.3703C53.6113 14.0163 54.347 13.7684 55.1803 13.6268C56.0313 13.4675 56.9355 13.3878 57.8929 13.3878H59.6481V12.8568C59.6481 12.5381 59.586 12.2195 59.4619 11.9008C59.3378 11.5822 59.1516 11.299 58.9034 11.0511C58.6552 10.7856 58.345 10.582 57.9727 10.4404C57.6003 10.2811 57.1571 10.2014 56.643 10.2014C56.182 10.2014 55.7742 10.2457 55.4197 10.3342C55.0828 10.4227 54.7725 10.5378 54.4889 10.6794C54.2052 10.8033 53.9481 10.9538 53.7177 11.1308C53.4872 11.3078 53.2656 11.476 53.0528 11.6353L51.6168 10.1483ZM58.3716 15.1403C57.8042 15.1403 57.2192 15.1757 56.6164 15.2466C56.0313 15.2997 55.4906 15.4147 54.9942 15.5917C54.5155 15.7688 54.1166 16.0166 53.7974 16.3352C53.496 16.6539 53.3453 17.061 53.3453 17.5567C53.3453 18.2825 53.5847 18.8047 54.0634 19.1233C54.5598 19.442 55.2246 19.6013 56.0579 19.6013C56.7139 19.6013 57.2724 19.4951 57.7333 19.2826C58.1943 19.0525 58.5666 18.7604 58.8502 18.4064C59.1339 18.0523 59.3378 17.6629 59.4619 17.238C59.586 16.7955 59.6481 16.3618 59.6481 15.9369V15.1403H58.3716ZM65.3539 8.60824H67.7473V10.5466H67.8005C67.9601 10.2103 68.1728 9.90935 68.4388 9.64382C68.7047 9.36058 68.9972 9.1216 69.3163 8.92688C69.6532 8.73216 70.0166 8.58169 70.4067 8.47548C70.7967 8.35156 71.1868 8.2896 71.5768 8.2896C71.9669 8.2896 72.3214 8.34271 72.6406 8.44892L72.5342 11.0246C72.3392 10.9715 72.1441 10.9272 71.9491 10.8918C71.7541 10.8564 71.5591 10.8387 71.3641 10.8387C70.1939 10.8387 69.2986 11.1662 68.6781 11.8212C68.0576 12.4762 67.7473 13.494 67.7473 14.8748V21.1945H65.3539V8.60824ZM76.5376 15.7776C76.5376 16.3264 76.6529 16.8309 76.8834 17.2912C77.1316 17.7337 77.4507 18.1143 77.8407 18.4329C78.2308 18.7516 78.6829 18.9994 79.197 19.1764C79.7112 19.3535 80.243 19.442 80.7926 19.442C81.5373 19.442 82.1844 19.2738 82.734 18.9375C83.2836 18.5834 83.7889 18.1232 84.2498 17.5567L86.0582 18.9375C84.7285 20.6546 82.8669 21.5131 80.4735 21.5131C79.4807 21.5131 78.5765 21.3449 77.761 21.0086C76.9631 20.6723 76.2806 20.212 75.7132 19.6278C75.1636 19.026 74.7381 18.3267 74.4367 17.5301C74.1353 16.7158 73.9846 15.8396 73.9846 14.9014C73.9846 13.9631 74.1442 13.0957 74.4633 12.2991C74.8002 11.4848 75.2523 10.7856 75.8196 10.2014C76.4047 9.59956 77.0961 9.13046 77.8939 8.79411C78.6917 8.45777 79.5605 8.2896 80.5001 8.2896C81.617 8.2896 82.5567 8.48433 83.319 8.87378C84.0991 9.26322 84.7374 9.77658 85.2338 10.4139C85.7302 11.0334 86.0848 11.7415 86.2975 12.5381C86.528 13.317 86.6433 14.1136 86.6433 14.9279V15.7776H76.5376ZM84.0903 13.8658C84.0725 13.3347 83.9839 12.8479 83.8243 12.4054C83.6825 11.9628 83.4609 11.5822 83.1595 11.2636C82.8581 10.9272 82.4769 10.6705 82.016 10.4935C81.5727 10.2988 81.0497 10.2014 80.4469 10.2014C79.8619 10.2014 79.3211 10.3165 78.8247 10.5466C78.346 10.7591 77.9382 11.0423 77.6014 11.3963C77.2645 11.7504 76.9986 12.1487 76.8036 12.5912C76.6263 13.0161 76.5376 13.4409 76.5376 13.8658H84.0903Z" fill="white"/>
<path d="M90.7887 8.21583H93.1825V10.0332H93.2356C93.6967 9.35617 94.3261 8.83055 95.1241 8.45637C95.9397 8.0822 96.7731 7.89511 97.6242 7.89511C98.5994 7.89511 99.4772 8.06438 100.257 8.40292C101.055 8.74146 101.729 9.21363 102.279 9.81943C102.846 10.4252 103.281 11.1379 103.582 11.9576C103.883 12.7594 104.034 13.6235 104.034 14.55C104.034 15.4944 103.883 16.3764 103.582 17.196C103.281 17.9978 102.846 18.7016 102.279 19.3074C101.729 19.8954 101.055 20.3586 100.257 20.6972C99.4772 21.0357 98.5994 21.205 97.6242 21.205C96.7199 21.205 95.8688 21.0179 95.0709 20.6437C94.2729 20.2517 93.6612 19.7261 93.2356 19.0668H93.1825V28.4212H90.7887V8.21583ZM97.3316 10.1401C96.6933 10.1401 96.117 10.256 95.6028 10.4876C95.0886 10.7014 94.6542 11.0043 94.2995 11.3963C93.9449 11.7705 93.6701 12.2337 93.475 12.7861C93.28 13.3206 93.1825 13.9086 93.1825 14.55C93.1825 15.1915 93.28 15.7884 93.475 16.3407C93.6701 16.8753 93.9449 17.3385 94.2995 17.7305C94.6542 18.1047 95.0886 18.4076 95.6028 18.6392C96.117 18.853 96.6933 18.9599 97.3316 18.9599C97.97 18.9599 98.5462 18.853 99.0605 18.6392C99.5747 18.4076 100.009 18.1047 100.364 17.7305C100.718 17.3385 100.993 16.8753 101.188 16.3407C101.383 15.7884 101.481 15.1915 101.481 14.55C101.481 13.9086 101.383 13.3206 101.188 12.7861C100.993 12.2337 100.718 11.7705 100.364 11.3963C100.009 11.0043 99.5747 10.7014 99.0605 10.4876C98.5462 10.256 97.97 10.1401 97.3316 10.1401ZM107.102 9.76598C107.776 9.14236 108.556 8.67909 109.442 8.37619C110.329 8.05547 111.215 7.89511 112.102 7.89511C113.024 7.89511 113.813 8.01093 114.469 8.24256C115.143 8.47419 115.693 8.786 116.118 9.17799C116.544 9.56998 116.854 10.0243 117.049 10.541C117.262 11.0399 117.368 11.5656 117.368 12.1179V18.5858C117.368 19.0312 117.377 19.441 117.395 19.8152C117.413 20.1894 117.439 20.5457 117.475 20.8843H115.347C115.294 20.2428 115.267 19.6014 115.267 18.9599H115.214C114.682 19.7796 114.052 20.3586 113.325 20.6972C112.598 21.0357 111.756 21.205 110.799 21.205C110.214 21.205 109.655 21.1248 109.123 20.9644C108.591 20.8041 108.121 20.5635 107.713 20.2428C107.323 19.9221 107.013 19.5301 106.783 19.0668C106.552 18.5858 106.437 18.0334 106.437 17.4098C106.437 16.5902 106.614 15.9042 106.969 15.3518C107.341 14.7995 107.838 14.354 108.458 14.0155C109.097 13.6592 109.832 13.4097 110.666 13.2672C111.517 13.1068 112.421 13.0266 113.379 13.0266H115.134V12.4921C115.134 12.1714 115.072 11.8507 114.948 11.5299C114.824 11.2092 114.638 10.9241 114.389 10.6747C114.141 10.4074 113.831 10.2025 113.458 10.06C113.086 9.89961 112.643 9.81943 112.129 9.81943C111.668 9.81943 111.26 9.86398 110.905 9.95306C110.568 10.0422 110.258 10.158 109.974 10.3005C109.691 10.4252 109.433 10.5767 109.203 10.7549C108.972 10.933 108.751 11.1023 108.538 11.2627L107.102 9.76598ZM113.857 14.7906C113.29 14.7906 112.705 14.8262 112.102 14.8975C111.517 14.9509 110.976 15.0668 110.48 15.2449C110.001 15.4231 109.602 15.6726 109.283 15.9933C108.981 16.314 108.831 16.7238 108.831 17.2227C108.831 17.9532 109.07 18.4789 109.549 18.7996C110.045 19.1203 110.71 19.2807 111.543 19.2807C112.2 19.2807 112.758 19.1737 113.219 18.9599C113.68 18.7283 114.052 18.4343 114.336 18.078C114.62 17.7216 114.824 17.3296 114.948 16.902C115.072 16.4565 115.134 16.02 115.134 15.5924V14.7906H113.857ZM119.325 8.21583H122.091L125.841 18.1047H125.894L129.458 8.21583H132.038L126.054 23.6104C125.841 24.1627 125.619 24.6616 125.389 25.1071C125.158 25.5703 124.883 25.9623 124.564 26.283C124.245 26.6038 123.855 26.8532 123.394 27.0314C122.951 27.2096 122.401 27.2986 121.745 27.2986C121.39 27.2986 121.027 27.2719 120.655 27.2185C120.3 27.1828 119.954 27.0937 119.617 26.9512L119.91 24.7596C120.389 24.9556 120.867 25.0536 121.346 25.0536C121.718 25.0536 122.029 25.0002 122.277 24.8932C122.543 24.8042 122.765 24.6616 122.942 24.4656C123.137 24.2874 123.297 24.0736 123.421 23.8242C123.545 23.5747 123.669 23.2896 123.793 22.9689L124.564 20.9644L119.325 8.21583Z" fill="white"/>
<path d="M20.9985 18.4411C21.3569 21.4838 21.2725 24.5624 20.748 27.581C20.986 27.5328 21.1604 27.5114 21.3258 27.462C24.2885 26.6018 27.2515 25.7405 30.215 24.8783C30.5595 24.7789 30.766 24.6594 30.7809 24.2319C31.0105 17.8304 30.2305 11.5913 27.8487 5.60192C27.7196 5.27724 27.5613 4.96326 27.4126 4.64631C27.3638 4.54165 27.3019 4.44294 27.2121 4.28L17.6921 6.77755C19.1106 9.89533 20.1364 13.0553 20.7058 16.4223H18.8351C18.4186 14.8928 18.0789 13.3354 17.5571 11.8434C16.9567 10.1278 16.2136 8.46043 15.4906 6.78885C15.1194 5.93017 15.3121 5.38368 16.2201 5.14404C19.8813 4.17713 23.5439 3.21716 27.2079 2.26412C28.032 2.04945 28.3241 2.17909 28.7377 2.9563C30.3239 5.9379 31.217 9.14963 31.865 12.4399C32.6825 16.5953 32.8925 20.7882 32.6914 25.0073C32.6402 26.058 32.5022 26.2317 31.4943 26.5266L19.9882 29.8977C19.0011 30.1867 18.5323 29.871 18.399 28.8529C18.305 28.1352 18.161 27.4258 18.0777 26.7044C18.0093 26.1306 17.7963 25.8921 17.1489 25.9052C14.8338 25.9534 12.5168 25.9231 10.2005 25.9231C9.58053 25.9231 9.23424 25.593 9.17296 24.999C9.11881 24.481 9.53709 24.0636 10.1309 23.9964C10.3407 23.9795 10.5513 23.9746 10.7616 23.9815C12.7053 23.9815 14.6473 23.9815 16.5878 23.9815H17.4208C16.9448 22.7803 16.5355 21.6915 16.06 20.6342C15.9857 20.4689 15.6013 20.3672 15.3591 20.3654C12.8554 20.3458 10.3522 20.3547 7.84849 20.3505C7.61704 20.3505 7.30288 20.3993 7.17079 20.2738C6.89293 20.011 6.57579 19.6679 6.52165 19.3224C6.45203 18.8467 6.80427 18.5065 7.31597 18.4245C7.43203 18.4105 7.54901 18.4057 7.66583 18.4102C11.9006 18.4102 16.1352 18.4102 20.3696 18.4102C20.5529 18.4072 20.7373 18.4262 20.9985 18.4411ZM19.1987 23.1984V20.4177H18.1574C18.4983 21.3282 18.8119 22.166 19.1987 23.1978V23.1984Z" fill="white"/>
<path d="M17.7216 2.21746L10.0319 8.49695C10.8446 9.38842 11.6204 10.2448 12.531 11.2456H9.55347C8.05994 11.2456 6.56641 11.2504 5.07288 11.2421C4.67041 11.2421 4.12903 11.3562 4.14506 10.7102C4.16109 10.0642 4.71137 10.2121 5.10493 10.208C6.30759 10.1937 7.50966 10.2026 8.86903 10.2026C8.51286 9.84069 8.28314 9.59286 8.03797 9.35989C7.34345 8.69605 7.35057 8.17127 8.09733 7.55675C10.752 5.38197 13.4096 3.21115 16.0701 1.04428C16.396 0.778627 16.7166 0.506432 17.049 0.249689C17.4438 -0.0551924 17.8759 -0.095605 18.2754 0.210466C18.7983 0.603358 19.3002 1.02352 19.779 1.46922C20.2148 1.88167 20.2599 2.38921 19.8384 2.83613C19.4169 3.28306 18.9296 3.26166 18.4618 2.88249C18.2273 2.6929 18.0119 2.47955 17.7216 2.21746Z" fill="white"/>
<path d="M16.184 16.3705C15.3664 16.3705 14.7135 16.4072 14.0702 16.348C13.8774 16.3302 13.6462 16.0754 13.542 15.8739C13.2473 15.3039 12.8232 15.1498 12.1829 15.1551C8.55913 15.1859 4.93537 15.1764 1.311 15.1587C0.979773 15.1587 0.579662 15.087 0.331689 14.8956C-0.259494 14.4405 -0.0163124 13.4953 0.712633 13.2956C0.934851 13.2363 1.17863 13.2363 1.41223 13.2363C5.41274 13.2328 9.41326 13.2411 13.4138 13.2239C13.8882 13.2239 14.2032 13.3483 14.4566 13.7537C14.9837 14.5969 15.5497 15.4147 16.184 16.3705Z" fill="white"/>
</svg>
