<svg width="15" height="15" viewBox="0 0 15 15" fill="none" xmlns="http://www.w3.org/2000/svg">
<g clip-path="url(#clip0_1_1340)">
<path d="M10.8097 14.0224C10.5911 13.9976 10.3729 13.9694 10.1541 13.949C9.51172 13.8885 8.8687 13.8338 8.2267 13.7709C7.80901 13.7298 7.61053 13.3039 7.85251 12.9603C8.36842 12.2282 8.89011 11.5003 9.41316 10.7733C9.58615 10.533 9.89135 10.4817 10.1228 10.6424C10.358 10.8056 10.4107 11.1145 10.2431 11.363C10.167 11.4754 10.0857 11.5845 10.0069 11.695C9.92839 11.8055 9.84988 11.9156 9.78191 12.0417C9.8159 12.0216 9.85158 12.0043 9.88387 11.9815C11.2386 11.0258 12.0372 9.7289 12.2293 8.0809C12.4838 5.8949 11.3381 3.75309 9.37951 2.71039C9.22963 2.63052 9.09233 2.54488 9.03149 2.37562C8.96182 2.18122 9.01382 1.96813 9.16608 1.82743C9.32446 1.68129 9.54435 1.649 9.74555 1.75096C10.2135 1.98784 10.6475 2.27706 11.0418 2.62304C12.2582 3.68885 12.9865 5.02316 13.2237 6.62425C13.2465 6.77855 13.2628 6.9342 13.2822 7.08918C13.2822 7.36107 13.2822 7.63296 13.2822 7.90485C13.2543 8.11863 13.2353 8.3341 13.1975 8.54617C12.8726 10.3743 11.9326 11.8048 10.4056 12.8543C10.3757 12.8747 10.3474 12.8974 10.2937 12.9379C10.549 12.9613 10.775 12.9827 11.001 13.0028C11.3307 13.0324 11.5472 13.3277 11.467 13.6421C11.416 13.8416 11.2685 13.948 11.09 14.0224L10.8097 14.0224Z" fill="#164988"/>
<path d="M3.44313 0.971435C3.66166 0.996245 3.87985 1.02445 4.09906 1.04485C4.7414 1.10534 5.38408 1.15972 6.02608 1.22293C6.44377 1.26406 6.64225 1.68889 6.40027 2.03283C5.8847 2.76523 5.36301 3.49288 4.83996 4.21984C4.66391 4.46454 4.35328 4.51315 4.12047 4.34423C3.89276 4.17872 3.8428 3.87454 4.01002 3.63188C4.16397 3.40859 4.32439 3.18972 4.5035 2.93822C4.4447 2.96915 4.41513 2.9807 4.38998 2.99838C3.01966 3.95713 2.20636 5.2622 2.02386 6.92617C1.7812 9.14038 2.91532 11.2383 4.8838 12.2899C5.01703 12.3609 5.14142 12.4364 5.20565 12.5832C5.293 12.7837 5.25221 13.006 5.09622 13.1576C4.93852 13.3108 4.7047 13.3605 4.50927 13.2415C4.11877 13.0033 3.71535 12.7766 3.36224 12.4897C2.05139 11.4246 1.27786 10.0437 1.02976 8.37127C1.00563 8.20813 0.989997 8.04364 0.970624 7.87949L0.970624 7.0893C0.988977 6.93841 1.00461 6.78717 1.0267 6.63695C1.2765 4.93118 2.07552 3.53842 3.41594 2.45664C3.58281 2.32205 3.75988 2.20072 3.94918 2.0607C3.90296 2.05322 3.87577 2.0471 3.84824 2.04438C3.64534 2.02603 3.44245 2.01006 3.23989 1.99C2.93707 1.9601 2.73621 1.70418 2.77801 1.40238C2.80962 1.17331 2.96732 1.05504 3.16308 0.971775L3.44313 0.971435Z" fill="#164988"/>
</g>
<defs>
<clipPath id="clip0_1_1340">
<rect width="13.0507" height="13.0507" fill="white" transform="translate(14.0214 0.971436) rotate(90)"/>
</clipPath>
</defs>
</svg>
