<svg width="23" height="23" viewBox="0 0 23 23" fill="none" xmlns="http://www.w3.org/2000/svg">
<circle opacity="0.1" cx="11.4971" cy="11.4971" r="11.4971" fill="#164988"/>
<g clip-path="url(#clip0_1_1338)">
<path d="M14.8097 18.0224C14.5911 17.9976 14.3729 17.9694 14.1541 17.949C13.5117 17.8885 12.8687 17.8338 12.2267 17.7709C11.809 17.7298 11.6105 17.3039 11.8525 16.9603C12.3684 16.2282 12.8901 15.5003 13.4132 14.7733C13.5862 14.533 13.8913 14.4817 14.1228 14.6424C14.358 14.8056 14.4107 15.1145 14.2431 15.363C14.167 15.4754 14.0857 15.5845 14.0069 15.695C13.9284 15.8055 13.8499 15.9156 13.7819 16.0417C13.8159 16.0216 13.8516 16.0043 13.8839 15.9815C15.2386 15.0258 16.0372 13.7289 16.2293 12.0809C16.4838 9.8949 15.3381 7.75309 13.3795 6.71039C13.2296 6.63052 13.0923 6.54488 13.0315 6.37562C12.9618 6.18122 13.0138 5.96813 13.1661 5.82743C13.3245 5.68129 13.5443 5.649 13.7455 5.75096C14.2135 5.98784 14.6475 6.27706 15.0418 6.62304C16.2582 7.68885 16.9865 9.02316 17.2237 10.6242C17.2465 10.7785 17.2628 10.9342 17.2822 11.0892C17.2822 11.3611 17.2822 11.633 17.2822 11.9049C17.2543 12.1186 17.2353 12.3341 17.1975 12.5462C16.8726 14.3743 15.9326 15.8048 14.4056 16.8543C14.3757 16.8747 14.3474 16.8974 14.2937 16.9379C14.549 16.9613 14.775 16.9827 15.001 17.0028C15.3307 17.0324 15.5472 17.3277 15.467 17.6421C15.416 17.8416 15.2685 17.948 15.09 18.0224L14.8097 18.0224Z" fill="#164988"/>
<path d="M7.44313 4.97144C7.66166 4.99625 7.87985 5.02445 8.09906 5.04485C8.7414 5.10534 9.38408 5.15972 10.0261 5.22293C10.4438 5.26406 10.6423 5.68889 10.4003 6.03283C9.8847 6.76523 9.36301 7.49288 8.83996 8.21984C8.66391 8.46454 8.35328 8.51315 8.12047 8.34423C7.89276 8.17872 7.8428 7.87454 8.01002 7.63188C8.16397 7.40859 8.32439 7.18972 8.5035 6.93822C8.4447 6.96915 8.41513 6.9807 8.38998 6.99838C7.01966 7.95713 6.20636 9.2622 6.02386 10.9262C5.7812 13.1404 6.91532 15.2383 8.8838 16.2899C9.01703 16.3609 9.14142 16.4364 9.20565 16.5832C9.293 16.7837 9.25221 17.006 9.09622 17.1576C8.93852 17.3108 8.7047 17.3605 8.50927 17.2415C8.11877 17.0033 7.71535 16.7766 7.36224 16.4897C6.05139 15.4246 5.27786 14.0437 5.02976 12.3713C5.00563 12.2081 4.99 12.0436 4.97062 11.8795L4.97062 11.0893C4.98898 10.9384 5.00461 10.7872 5.0267 10.6369C5.2765 8.93118 6.07552 7.53842 7.41594 6.45664C7.58281 6.32205 7.75988 6.20072 7.94918 6.0607C7.90296 6.05322 7.87577 6.0471 7.84824 6.04438C7.64534 6.02603 7.44245 6.01006 7.23989 5.99C6.93707 5.9601 6.73621 5.70418 6.77801 5.40238C6.80962 5.17331 6.96732 5.05504 7.16308 4.97178L7.44313 4.97144Z" fill="#164988"/>
</g>
<defs>
<clipPath id="clip0_1_1338">
<rect width="13.0507" height="13.0507" fill="white" transform="translate(18.0214 4.97144) rotate(90)"/>
</clipPath>
</defs>
</svg>
