<svg width="10" height="10" viewBox="0 0 10 10" fill="none" xmlns="http://www.w3.org/2000/svg">
<path d="M3.80108 2.44138e-08C3.19619 -6.71778e-05 2.60003 0.150005 2.06213 0.437742C1.52424 0.725479 1.06015 1.14257 0.708452 1.65435C0.356753 2.16612 0.127598 2.7578 0.040034 3.3802C-0.0475299 4.00261 0.00902656 4.63775 0.205003 5.23285C0.400979 5.82795 0.730713 6.36582 1.1668 6.80173C1.60289 7.23765 2.13273 7.55903 2.71228 7.73917C3.29184 7.9193 3.90437 7.95298 4.49896 7.83742C5.09356 7.72185 5.65304 7.46036 6.1309 7.0747L8.69065 9.73562C8.73448 9.78281 8.7869 9.82044 8.84486 9.84634C8.90283 9.87223 8.96517 9.88586 9.02825 9.88643C9.09133 9.887 9.15389 9.8745 9.21228 9.84966C9.27066 9.82481 9.32371 9.78813 9.36831 9.74174C9.41292 9.69536 9.4482 9.64019 9.47208 9.57948C9.49597 9.51876 9.50799 9.45371 9.50744 9.38811C9.5069 9.32251 9.49379 9.25768 9.46889 9.19741C9.44399 9.13713 9.4078 9.08262 9.36242 9.03704L6.80362 6.37612C7.23979 5.7919 7.50957 5.09212 7.58227 4.35636C7.65498 3.6206 7.52769 2.87839 7.21489 2.21413C6.90209 1.54987 6.41632 0.990207 5.81283 0.598793C5.20933 0.207379 4.51233 -8.21695e-05 3.80108 2.44138e-08ZM0.950576 3.95235C0.950576 3.16618 1.2509 2.41221 1.78547 1.8563C2.32004 1.30039 3.04508 0.988087 3.80108 0.988087C4.55709 0.988087 5.28212 1.30039 5.8167 1.8563C6.35127 2.41221 6.65159 3.16618 6.65159 3.95235C6.65159 4.73852 6.35127 5.49249 5.8167 6.0484C5.28212 6.6043 4.55709 6.91661 3.80108 6.91661C3.04508 6.91661 2.32004 6.6043 1.78547 6.0484C1.2509 5.49249 0.950576 4.73852 0.950576 3.95235Z" fill="#9499A1"/>
</svg>
